# xmcd
#
# Track frame offsets:
#	150
#	17195
#	34575
#	52901
#	68045
#	82855
#	99816
#	113407
#	133159
#	150876
#	176487
#	187984
#
# Disc length: 2694 seconds
#
# Revision: 0
# Processed by: cddbd v1.5.2PL0 Copyright (c) Steve Scherf et al.
# Submitted via: EasyCDDAExtractor 12.0.1.1
#
DISCID=7e0a840c
DTITLE=Daryle Singletary - Rockin' In The Country
DYEAR=2009
DGENRE=Country
TTITLE0=Rockin' In The Country
TTITLE1=Love You With The Lights On
TTITLE2=That Why God Made Me
TTITLE3=How Can I Believe In You
TTITLE4=Going Through Hell
TTITLE5=Background Noise
TTITLE6=If I Ever Get Her Back
TTITLE7=Real Estate Hands
TTITLE8=She's A Woman
TTITLE9=She Sure Looks Good In Black
TTITLE10=They Know How To Grow Em'
TTITLE11=Take Me Home, Country Roads
EXTD=
EXTT0=
EXTT1=
EXTT2=
EXTT3=
EXTT4=
EXTT5=
EXTT6=
EXTT7=
EXTT8=
EXTT9=
EXTT10=
EXTT11=
PLAYORDER=
